<svg width="185" height="114" viewBox="0 0 185 114" fill="none" xmlns="http://www.w3.org/2000/svg">
<path d="M38.0868 22.6924C68.1386 -6.73079 116.862 -6.73079 146.914 22.6924L150.531 26.2335C152.033 27.7047 152.033 30.0899 150.531 31.561L138.158 43.6745C137.407 44.4101 136.189 44.4101 135.438 43.6745L130.461 38.8015C109.496 18.2752 75.5049 18.2752 54.5401 38.8015L49.21 44.0201C48.4587 44.7557 47.2406 44.7557 46.4893 44.0201L34.1171 31.9066C32.6145 30.4355 32.6145 28.0502 34.1171 26.5791L38.0868 22.6924ZM172.501 47.7443L183.512 58.5254C185.015 59.9965 185.015 62.3817 183.512 63.8529L133.861 112.466C132.359 113.937 129.923 113.937 128.42 112.466C128.42 112.466 128.42 112.466 128.42 112.466L93.1807 77.9639C92.8051 77.5961 92.196 77.5961 91.8204 77.9639C91.8204 77.9639 91.8204 77.9639 91.8204 77.9639L56.5819 112.466C55.0794 113.937 52.6432 113.937 51.1406 112.466C51.1406 112.466 51.1406 112.466 51.1406 112.466L1.48827 63.8523C-0.0143185 62.3811 -0.0143185 59.9959 1.48827 58.5247L12.4996 47.7437C14.0022 46.2726 16.4384 46.2726 17.941 47.7437L53.1807 82.2463C53.5563 82.6141 54.1654 82.6141 54.541 82.2463C54.541 82.2463 54.541 82.2463 54.541 82.2463L89.779 47.7437C91.2815 46.2725 93.7177 46.2725 95.2203 47.7436C95.2204 47.7436 95.2204 47.7436 95.2204 47.7437L130.46 82.2463C130.836 82.6141 131.445 82.6141 131.82 82.2463L167.059 47.7443C168.562 46.2732 170.998 46.2732 172.501 47.7443Z" fill="#3B99FC"/>
</svg>
